# xmcd
# 
# Track frame offsets:
#     225
#     15083
#     43194
#     67026
#     89051
#     114506
#     148203
#     176827
#     200245
#     233579
# 
# Disc length: 3572
# 
# Revision: 5
# Processed by: cddbd v1.5.2PL0 Copyright (c) Steve Scherf et al.
# Submitted via: fre:ac v1.0.17
# 
DISCID=920df10a
DTITLE=Arnold Klos - Heartstrings
DYEAR=2002
DGENRE=Jazz
TTITLE0=Elozete
TTITLE1=A Time For Love
TTITLE2=Gloria's Step
TTITLE3=The Dolphin
TTITLE4=Quiet Now
TTITLE5=All Of You
TTITLE6=Very Early
TTITLE7=Sempre Re
TTITLE8=My Man's Gone Now
TTITLE9=Time Remembered
EXTD=
EXTT0=
EXTT1=
EXTT2=
EXTT3=
EXTT4=
EXTT5=
EXTT6=
EXTT7=
EXTT8=
EXTT9=
PLAYORDER=
